HIERARCHY
ROOT ETY1
{
	OFFSET 0.000000 0.000000 0.000000
	CHANNELS 6 Xposition Yposition Zposition Xrotation Yrotation Zrotation
	JOINT N_ALL
	{
		OFFSET 0.000000 0.000000 0.000000
		CHANNELS 3 Xrotation Yrotation Zrotation
		JOINT locator2
		{
			OFFSET 0.000000 0.000000 63.674999
			CHANNELS 3 Xrotation Yrotation Zrotation
			JOINT hara
			{
				OFFSET -0.000000 -0.000000 0.472500
				CHANNELS 3 Xrotation Yrotation Zrotation
				JOINT mune
				{
					OFFSET -0.000005 -0.000000 14.647499
					CHANNELS 3 Xrotation Yrotation Zrotation
					JOINT kubi
					{
						OFFSET -0.565367 0.000000 13.797264
						CHANNELS 3 Xrotation Yrotation Zrotation
						JOINT kao
						{
							OFFSET 0.709599 -0.000000 1.686798
							CHANNELS 3 Xrotation Yrotation Zrotation
							JOINT ago
							{
								OFFSET 1.521274 -0.000001 2.195969
								CHANNELS 3 Xrotation Yrotation Zrotation
								End Site
								{
									OFFSET -0.000000 0.000000 0.365990
								}
							}
							JOINT eyebrow
							{
								OFFSET 2.744157 -0.000001 4.250847
								CHANNELS 3 Xrotation Yrotation Zrotation
								End Site
								{
									OFFSET -0.000000 0.000000 0.365990
								}
							}
							JOINT lip
							{
								OFFSET 1.419795 -0.000001 0.927528
								CHANNELS 3 Xrotation Yrotation Zrotation
								End Site
								{
									OFFSET 0.365992 -0.000000 0.000000
								}
							}
						}
					}
					JOINT L_sako
					{
						OFFSET -0.472501 6.525000 10.465401
						CHANNELS 3 Xrotation Yrotation Zrotation
						JOINT L_kata
						{
							OFFSET -0.000001 5.850000 -0.581734
							CHANNELS 3 Xrotation Yrotation Zrotation
							JOINT L_hiji
							{
								OFFSET -0.483016 15.785759 -0.000015
								CHANNELS 3 Xrotation Yrotation Zrotation
								JOINT L_te
								{
									OFFSET 0.611527 17.032738 -0.013641
									CHANNELS 3 Xrotation Yrotation Zrotation
									JOINT LeftHandIndex1
									{
										OFFSET 2.549848 6.470253 0.791817
										CHANNELS 3 Xrotation Yrotation Zrotation
										JOINT LeftHandIndex2
										{
											OFFSET -0.000001 2.289848 0.000000
											CHANNELS 3 Xrotation Yrotation Zrotation
											JOINT LeftHandIndex3
											{
												OFFSET -0.000001 2.268135 0.000000
												CHANNELS 3 Xrotation Yrotation Zrotation
												End Site
												{
													OFFSET 0.000000 0.365993 0.000000
												}
											}
										}
									}
									JOINT LeftHandMiddle1
									{
										OFFSET 0.874708 6.694298 1.118919
										CHANNELS 3 Xrotation Yrotation Zrotation
										JOINT LeftHandMiddle2
										{
											OFFSET -0.000001 2.683815 0.000000
											CHANNELS 3 Xrotation Yrotation Zrotation
											JOINT LeftHandMiddle3
											{
												OFFSET -0.000001 2.217308 0.000000
												CHANNELS 3 Xrotation Yrotation Zrotation
												End Site
												{
													OFFSET -0.000000 0.365993 0.000000
												}
											}
										}
									}
									JOINT LeftHandPinky1
									{
										OFFSET -2.442180 5.931721 0.497902
										CHANNELS 3 Xrotation Yrotation Zrotation
										JOINT LeftHandPinky2
										{
											OFFSET -0.000000 2.137306 0.000000
											CHANNELS 3 Xrotation Yrotation Zrotation
											JOINT LeftHandPinky3
											{
												OFFSET -0.000000 1.836044 0.000000
												CHANNELS 3 Xrotation Yrotation Zrotation
												End Site
												{
													OFFSET 0.000000 0.365993 0.000000
												}
											}
										}
									}
									JOINT LeftHandRing1
									{
										OFFSET -0.853656 6.338440 0.870934
										CHANNELS 3 Xrotation Yrotation Zrotation
										JOINT LeftHandRing2
										{
											OFFSET -0.000001 2.531284 0.000000
											CHANNELS 3 Xrotation Yrotation Zrotation
											JOINT LeftHandRing3
											{
												OFFSET -0.000001 2.217308 0.000000
												CHANNELS 3 Xrotation Yrotation Zrotation
												End Site
												{
													OFFSET -0.000000 0.365993 0.000000
												}
											}
										}
									}
									JOINT LeftHandThumb1
									{
										OFFSET 2.594638 1.377514 -1.567856
										CHANNELS 3 Xrotation Yrotation Zrotation
										JOINT LeftHandThumb2
										{
											OFFSET 1.626614 2.409187 0.000557
											CHANNELS 3 Xrotation Yrotation Zrotation
											JOINT LeftHandThumb3
											{
												OFFSET 0.823900 2.113201 0.000290
												CHANNELS 3 Xrotation Yrotation Zrotation
												End Site
												{
													OFFSET 0.000000 0.365993 0.000000
												}
											}
										}
									}
								}
							}
						}
					}
					JOINT R_sako
					{
						OFFSET -0.472506 -6.525000 10.465546
						CHANNELS 3 Xrotation Yrotation Zrotation
						JOINT R_kata
						{
							OFFSET 0.000002 -5.850000 -0.581696
							CHANNELS 3 Xrotation Yrotation Zrotation
							JOINT R_hiji
							{
								OFFSET -0.483008 -15.785765 -0.000015
								CHANNELS 3 Xrotation Yrotation Zrotation
								JOINT R_te
								{
									OFFSET 0.611537 -17.032732 -0.013748
									CHANNELS 3 Xrotation Yrotation Zrotation
									JOINT RightHandIndex1
									{
										OFFSET 2.550124 -6.470253 0.790878
										CHANNELS 3 Xrotation Yrotation Zrotation
										JOINT RightHandIndex2
										{
											OFFSET 0.000001 -2.289848 0.000000
											CHANNELS 3 Xrotation Yrotation Zrotation
											JOINT RightHandIndex3
											{
												OFFSET 0.000001 -2.268135 0.000000
												CHANNELS 3 Xrotation Yrotation Zrotation
												End Site
												{
													OFFSET 0.000000 -0.365993 0.000000
												}
											}
										}
									}
									JOINT RightHandMiddle1
									{
										OFFSET 0.875098 -6.694302 1.118561
										CHANNELS 3 Xrotation Yrotation Zrotation
										JOINT RightHandMiddle2
										{
											OFFSET 0.000001 -2.683807 0.000000
											CHANNELS 3 Xrotation Yrotation Zrotation
											JOINT RightHandMiddle3
											{
												OFFSET 0.000001 -2.217308 0.000000
												CHANNELS 3 Xrotation Yrotation Zrotation
												End Site
												{
													OFFSET 0.000000 -0.365993 0.000000
												}
											}
										}
									}
									JOINT RightHandPinky1
									{
										OFFSET -2.442005 -5.931721 0.498680
										CHANNELS 3 Xrotation Yrotation Zrotation
										JOINT RightHandPinky2
										{
											OFFSET 0.000000 -2.137306 0.000000
											CHANNELS 3 Xrotation Yrotation Zrotation
											JOINT RightHandPinky3
											{
												OFFSET 0.000000 -1.836044 0.000000
												CHANNELS 3 Xrotation Yrotation Zrotation
												End Site
												{
													OFFSET 0.000000 -0.365993 0.000000
												}
											}
										}
									}
									JOINT RightHandRing1
									{
										OFFSET -0.853352 -6.338440 0.871170
										CHANNELS 3 Xrotation Yrotation Zrotation
										JOINT RightHandRing2
										{
											OFFSET 0.000001 -2.531284 0.000000
											CHANNELS 3 Xrotation Yrotation Zrotation
											JOINT RightHandRing3
											{
												OFFSET 0.000001 -2.217308 0.000000
												CHANNELS 3 Xrotation Yrotation Zrotation
												End Site
												{
													OFFSET 0.000000 -0.365993 0.000000
												}
											}
										}
									}
									JOINT RightHandThumb1
									{
										OFFSET 2.594098 -1.377514 -1.568817
										CHANNELS 3 Xrotation Yrotation Zrotation
										JOINT RightHandThumb2
										{
											OFFSET 1.626616 -2.409184 0.000000
											CHANNELS 3 Xrotation Yrotation Zrotation
											JOINT RightHandThumb3
											{
												OFFSET 0.823900 -2.113201 0.000000
												CHANNELS 3 Xrotation Yrotation Zrotation
												End Site
												{
													OFFSET 0.000000 -0.365993 0.000000
												}
											}
										}
									}
								}
							}
						}
					}
				}
			}
			JOINT koshi
			{
				OFFSET 0.000000 0.000000 0.000000
				CHANNELS 3 Xrotation Yrotation Zrotation
				JOINT L_momo
				{
					OFFSET 0.000005 5.033075 -8.541428
					CHANNELS 3 Xrotation Yrotation Zrotation
					JOINT L_hiza
					{
						OFFSET 0.236263 0.000015 -23.625002
						CHANNELS 3 Xrotation Yrotation Zrotation
						JOINT L_ashi
						{
							OFFSET -0.944986 0.000017 -25.908707
							CHANNELS 3 Xrotation Yrotation Zrotation
							JOINT L_ashi2
							{
								OFFSET 3.767458 0.000001 -3.875652
								CHANNELS 3 Xrotation Yrotation Zrotation
								End Site
								{
									OFFSET 0.365992 0.000000 0.000000
								}
							}
						}
					}
				}
				JOINT R_momo
				{
					OFFSET 0.000001 -5.033065 -8.541435
					CHANNELS 3 Xrotation Yrotation Zrotation
					JOINT R_hiza
					{
						OFFSET 0.236263 0.000015 -23.624998
						CHANNELS 3 Xrotation Yrotation Zrotation
						JOINT R_ashi
						{
							OFFSET -0.944986 0.000017 -25.908707
							CHANNELS 3 Xrotation Yrotation Zrotation
							JOINT R_ashi2
							{
								OFFSET 3.767459 0.000001 -3.875652
								CHANNELS 3 Xrotation Yrotation Zrotation
								End Site
								{
									OFFSET 0.365992 0.000000 0.000000
								}
							}
						}
					}
				}
			}
		}
	}
}
MOTION
Frames: 6
Frame Time: 0.041667
0.000000 0.000000 0.000000 -0.000000 0.000000 -89.999982 -0.000000 0.000000 -0.000000 -0.000000 0.000003 0.000000 -0.090636 1.671333 -1.033368 2.041979 2.505422 -1.943325 -1.096205 12.851746 2.003657 2.522117 -9.010004 0.574487 0.000001 1.999548 0.000002 0.000000 1.999891 -0.000016 -0.000004 -1.999566 0.000002 -20.051292 20.429903 9.564784 -48.207762 11.239580 -8.349115 -0.467433 0.119584 -33.505606 3.064201 -4.883755 0.897596 -74.128870 11.593542 0.286457 -96.095045 0.021993 -0.019440 -96.095045 0.021894 -0.019607 -63.264620 0.010880 -0.017692 -95.048079 0.021528 -0.019745 -95.048079 0.021525 -0.019748 -84.444477 -10.119179 -0.020070 -89.056706 0.019460 -0.019714 -102.105830 0.023938 -0.019280 -75.502653 0.014778 -0.019305 -94.514880 0.021173 -0.020213 -94.514874 0.021167 -0.020216 -19.239091 1.320697 4.679952 -0.015061 -0.007115 49.512677 -0.017423 -0.010412 61.620976 17.720574 15.502400 -9.027015 48.592852 24.509184 7.898245 0.295090 0.078212 30.040968 3.271287 -10.249343 5.894667 74.134798 11.579606 -0.306190 96.095072 0.000033 0.000081 96.095031 0.000052 0.000080 63.264627 0.000038 0.000028 95.048086 0.000064 0.000023 95.048086 0.000064 0.000019 84.440980 -10.136864 0.000051 89.056699 -0.000034 0.000234 102.105857 0.000059 0.000083 75.502660 0.000302 -0.000179 94.514894 0.000087 0.000063 94.514887 -0.000083 0.000381 19.238806 1.319797 -4.686558 0.000020 -0.000057 -49.512687 0.000041 -0.000073 -61.620983 -0.731336 -0.941187 1.291848 3.998817 3.886151 -0.689242 0.016400 22.900026 0.409605 -7.847899 -10.567332 8.733331 1.318699 -13.706630 -0.297332 -1.700895 -19.281674 -1.300370 -0.002050 9.329874 0.019348 1.959742 11.359378 -16.326809 -0.335667 -0.276851 -0.359817 
0.000000 0.000000 0.000000 -0.000000 0.000000 -89.999982 -0.000000 0.000000 -0.000000 -0.000000 0.000003 0.000000 -0.090636 1.671333 -1.033368 2.041979 2.505422 -1.943325 -1.096205 12.851746 2.003657 2.522117 -9.010004 0.574487 0.000001 1.999548 0.000002 0.000000 1.999891 -0.000016 -0.000004 -1.999566 0.000002 -20.051292 20.429903 9.564784 -48.207762 11.239580 -8.349115 -0.467433 0.119584 -33.505606 3.064201 -4.883755 0.897596 -74.128870 11.593542 0.286457 -96.095045 0.021993 -0.019440 -96.095045 0.021894 -0.019607 -63.264620 0.010880 -0.017692 -95.048079 0.021528 -0.019745 -95.048079 0.021525 -0.019748 -84.444477 -10.119179 -0.020070 -89.056706 0.019460 -0.019714 -102.105830 0.023938 -0.019280 -75.502653 0.014778 -0.019305 -94.514880 0.021173 -0.020213 -94.514874 0.021167 -0.020216 -19.239091 1.320697 4.679952 -0.015061 -0.007115 49.512677 -0.017423 -0.010412 61.620976 17.720574 15.502400 -9.027015 48.592852 24.509184 7.898245 0.295090 0.078212 30.040968 3.271287 -10.249343 5.894667 74.134798 11.579606 -0.306190 96.095072 0.000033 0.000081 96.095031 0.000052 0.000080 63.264627 0.000038 0.000028 95.048086 0.000064 0.000023 95.048086 0.000064 0.000019 84.440980 -10.136864 0.000051 89.056699 -0.000034 0.000234 102.105857 0.000059 0.000083 75.502660 0.000302 -0.000179 94.514894 0.000087 0.000063 94.514887 -0.000083 0.000381 19.238806 1.319797 -4.686558 0.000020 -0.000057 -49.512687 0.000041 -0.000073 -61.620983 -0.731336 -0.941187 1.291848 3.998817 3.886151 -0.689242 0.016400 22.900026 0.409605 -7.847899 -10.567332 8.733331 1.318699 -13.706630 -0.297332 -1.700895 -19.281674 -1.300370 -0.002050 9.329874 0.019348 1.959742 11.359378 -16.326809 -0.335667 -0.276851 -0.359817 
0.000000 0.846426 0.000000 -0.000000 0.000000 -89.999982 -0.000000 0.000000 -0.000000 -0.000000 0.000003 0.000000 -0.018455 1.364490 -1.070302 1.934419 2.752375 -1.773632 -0.997516 12.904108 1.947116 2.449500 -8.625153 0.806795 0.000001 2.079188 0.000002 0.000001 1.999890 -0.000016 -0.000003 -2.014007 0.000002 -20.127143 20.392546 9.690433 -48.697811 11.204976 -8.413401 -0.467432 0.105200 -32.194448 2.895527 -4.914068 0.354515 -74.128870 11.593539 0.286454 -96.095045 0.021990 -0.019439 -96.095045 0.021896 -0.019603 -63.264620 0.010879 -0.017693 -95.048072 0.021526 -0.019749 -95.048072 0.021525 -0.019748 -84.444477 -10.119179 -0.020072 -89.056712 0.019458 -0.019713 -102.105830 0.023938 -0.019279 -75.502653 0.014777 -0.019306 -94.514880 0.021174 -0.020214 -94.514874 0.021169 -0.020215 -19.239091 1.320694 4.679949 -0.015061 -0.007117 49.512677 -0.017424 -0.010414 61.620976 17.610447 15.550070 -8.674182 47.401957 23.767095 9.542518 0.299787 0.064348 29.890796 2.964266 -8.656219 5.643872 74.134798 11.579607 -0.306189 96.095072 0.000032 0.000083 96.095031 0.000054 0.000083 63.264627 0.000039 0.000026 95.048086 0.000066 0.000021 95.048086 0.000064 0.000021 84.440980 -10.136863 0.000051 89.056699 -0.000034 0.000234 102.105857 0.000058 0.000081 75.502660 0.000304 -0.000181 94.514894 0.000087 0.000062 94.514887 -0.000085 0.000381 19.238804 1.319797 -4.686558 0.000023 -0.000058 -49.512690 0.000043 -0.000072 -61.620983 -1.023267 -1.554117 1.158314 4.656133 2.797308 -0.610062 0.023119 27.643278 0.548126 -8.236025 -10.443867 9.524655 0.660403 -11.514860 -1.296182 -0.915539 -19.011594 -1.112252 -0.003875 12.859851 -0.082731 1.755226 7.872121 -16.142093 -0.464033 -0.123135 -0.287042 
0.000000 1.692851 0.000000 -0.000000 0.000000 -89.999982 -0.000000 0.000000 -0.000000 -0.000000 0.000003 0.000000 0.042278 1.052098 -1.107256 1.825949 2.999408 -1.602409 -0.899120 12.956457 1.892082 2.377775 -8.238486 1.038720 0.000001 2.158887 0.000002 0.000000 1.999891 -0.000016 -0.000004 -2.028444 0.000001 -20.200484 20.353303 9.818022 -49.339070 11.384194 -7.809909 -0.463712 0.105200 -32.507630 2.732095 -4.940623 -0.187993 -74.128870 11.593541 0.286456 -96.095045 0.021990 -0.019440 -96.095045 0.021897 -0.019606 -63.264620 0.010881 -0.017692 -95.048079 0.021526 -0.019746 -95.048079 0.021525 -0.019746 -84.444477 -10.119177 -0.020069 -89.056712 0.019456 -0.019713 -102.105830 0.023937 -0.019280 -75.502653 0.014778 -0.019306 -94.514880 0.021173 -0.020214 -94.514874 0.021168 -0.020215 -19.239094 1.320698 4.679949 -0.015061 -0.007117 49.512677 -0.017423 -0.010413 61.620976 17.493506 15.595390 -8.323480 46.182246 23.073129 11.238993 0.299787 0.064349 29.740689 2.674757 -7.057523 5.399147 74.134805 11.579608 -0.306189 96.095072 0.000029 0.000087 96.095031 0.000049 0.000080 63.264627 0.000039 0.000025 95.048086 0.000062 0.000022 95.048086 0.000062 0.000020 84.440980 -10.136861 0.000048 89.056699 -0.000031 0.000234 102.105857 0.000058 0.000083 75.502660 0.000304 -0.000180 94.514894 0.000087 0.000059 94.514887 -0.000082 0.000379 19.238804 1.319799 -4.686556 0.000023 -0.000053 -49.512687 0.000041 -0.000074 -61.620983 -1.318051 -2.172539 1.022029 5.195726 1.814828 -0.512592 0.029468 32.098747 0.686273 -9.301995 -6.342776 9.745311 0.153933 -15.897064 -1.704703 -0.222272 -18.057039 -0.957743 0.000679 15.467552 -0.181715 1.562614 5.269368 -16.043066 -0.463720 -0.124308 -0.142150 
0.000000 2.543828 0.000000 -0.000000 0.000000 -89.999982 -0.000000 0.000000 -0.000000 -0.000000 0.000003 0.000000 0.119129 0.745213 -1.141600 1.718065 3.246400 -1.431196 -0.800566 13.008846 1.837026 2.305880 -7.853455 1.271690 0.000001 2.238528 0.000002 0.000001 1.999890 -0.000016 -0.000003 -2.042822 0.000002 -20.273881 20.314057 9.943682 -50.081973 11.355662 -6.927836 -0.461878 0.106804 -32.820801 2.572227 -5.111737 -0.730873 -74.128876 11.593536 0.286452 -96.095045 0.021991 -0.019445 -96.095045 0.021896 -0.019604 -63.264620 0.010879 -0.017695 -95.048072 0.021526 -0.019747 -95.048079 0.021525 -0.019750 -84.444477 -10.119178 -0.020075 -89.056712 0.019459 -0.019714 -102.105830 0.023938 -0.019279 -75.502653 0.014777 -0.019307 -94.514880 0.021172 -0.020214 -94.514874 0.021167 -0.020216 -19.239092 1.320694 4.679949 -0.015061 -0.007116 49.512673 -0.017424 -0.010415 61.620976 17.369692 15.638538 -7.977011 45.086523 22.217185 12.845108 0.299788 0.064345 29.594585 2.396774 -5.458821 5.160313 74.134805 11.579608 -0.306191 96.095072 0.000033 0.000084 96.095031 0.000051 0.000085 63.264627 0.000041 0.000026 95.048086 0.000064 0.000022 95.048086 0.000062 0.000023 84.440980 -10.136861 0.000048 89.056699 -0.000033 0.000234 102.105857 0.000058 0.000081 75.502660 0.000305 -0.000184 94.514894 0.000087 0.000064 94.514887 -0.000082 0.000379 19.238804 1.319802 -4.686556 0.000022 -0.000057 -49.512687 0.000042 -0.000071 -61.620983 -1.616326 -2.785623 0.877603 5.487997 0.838618 -0.393203 0.034516 36.120270 0.825543 -10.505073 -1.501827 9.351540 -0.055155 -20.282778 -1.162415 0.305838 -16.960762 -0.837325 0.001673 17.459205 -0.101243 1.374783 2.841022 -15.966841 -0.528221 -0.123477 -0.214907 
0.000000 3.390253 0.000000 -0.000000 0.000000 -89.999982 -0.000000 0.000000 -0.000000 -0.000000 0.000003 0.000000 0.190076 0.432893 -1.178608 1.609951 3.493459 -1.256884 -0.701576 13.061185 1.780478 2.237629 -8.186818 1.464278 0.000001 2.318169 0.000002 0.000000 1.999890 -0.000016 -0.000003 -2.056578 0.000002 -20.344753 20.274862 10.071269 -50.887430 11.263988 -6.124321 -0.458153 0.110013 -33.129798 2.455319 -5.258234 -0.738423 -74.128870 11.593537 0.286454 -96.095045 0.021991 -0.019442 -96.095045 0.021895 -0.019606 -63.264620 0.010877 -0.017694 -95.048079 0.021526 -0.019748 -95.048072 0.021526 -0.019748 -84.444477 -10.119177 -0.020072 -89.056706 0.019458 -0.019713 -102.105830 0.023938 -0.019279 -75.502660 0.014776 -0.019308 -94.514880 0.021174 -0.020216 -94.514874 0.021167 -0.020214 -19.239094 1.320694 4.679948 -0.015061 -0.007117 49.512677 -0.017423 -0.010415 61.620983 17.246957 15.647588 -7.562527 43.970582 21.400670 14.392037 0.301331 0.064347 29.444467 2.129109 -3.857132 4.926249 74.134798 11.579612 -0.306190 96.095072 0.000031 0.000085 96.095031 0.000053 0.000079 63.264627 0.000041 0.000027 95.048086 0.000062 0.000018 95.048086 0.000063 0.000021 84.440980 -10.136862 0.000049 89.056699 -0.000032 0.000234 102.105857 0.000059 0.000084 75.502660 0.000306 -0.000181 94.514894 0.000088 0.000061 94.514887 -0.000083 0.000378 19.238802 1.319802 -4.686556 0.000023 -0.000056 -49.512687 0.000042 -0.000074 -61.620983 -1.912555 -3.404128 0.724922 5.523436 -0.244077 -0.323379 0.040957 39.141738 0.939161 -11.366455 3.648696 9.545390 -0.782681 -23.640012 -1.031043 0.618747 -15.730573 -0.721706 -0.000005 18.838621 0.000025 1.155484 0.779219 -15.951070 -0.528375 -0.122812 -0.287041 
